<svg xmlns="http://www.w3.org/2000/svg" width="18" height="18" viewBox="0 0 18 18">
  <path
    d="M9.574 1.505c4.24.144 7.57 3.624 7.421 7.757-.148 4.133-3.718 7.378-7.958 7.233-4.24-.144-7.57-3.624-7.422-7.757.007-.199.017-.396.04-.59.013-.1.172-.85.864-.76.518.067.683.51.644.846l-.022.236c-.01.106-.016.212-.02.32-.12 3.323 2.558 6.122 5.968 6.238 3.41.116 6.281-2.494 6.4-5.817.12-3.324-2.558-6.123-5.968-6.239-.29-.01-.576 0-.856.029l-.279.034s-.892.144-1.09-.443c-.193-.568.256-.897.56-.958a7.888 7.888 0 0 1 1.718-.13zm-8.18.59c.072 0 .14.019.198.052l8.117 4.055.102.051.151.088c.64.393 1.054 1.016 1.054 1.716v.017-.001 3.353l.001.01a.391.391 0 0 1-.394.387.398.398 0 0 1-.186-.045l-1.885-.925c-.762-.348-1.28-1.004-1.288-1.758 0-.565-.092-1.222-1.02-2a1450.609 1450.609 0 0 1-5.117-4.327l-.005-.005-.05-.059A.381.381 0 0 1 1 2.483c0-.215.177-.388.394-.388z"/>
</svg>
