<?xml version="1.0" encoding="UTF-8"?>
<svg width="200px" height="40px" viewBox="0 0 200 40" version="1.1" xmlns="http://www.w3.org/2000/svg" xmlns:xlink="http://www.w3.org/1999/xlink">
    <g stroke="none" stroke-width="1" fill="none" fill-rule="evenodd">
        <rect fill="#1C2128" x="0" y="0" width="200" height="40" rx="6"></rect>
        <g transform="translate(12.000000, 10.000000)" fill="#FFFFFF">
            <path d="M26.36,8.81 C26.371,8.634 26.386,8.46 26.386,8.283 C26.387,3.429 22.93,0 18,0 C14.446,0 11.435,2.038 10,5 C9.303,4.468 7.949,4 7,4 C4.726,4 2.778,5.47 2.778,7.708 C2.778,8.129 2.842,8.535 2.964,8.917 C1.191,9.955 0,11.82 0,14 C0,17.256 2.705,19.949 6,20 C6,20 23.982,20 24.092,20 C27.354,20 30,17.213 30,14 C30,11.576 28.497,9.687 26.36,8.81 Z M8.054,15.5 C7.455,14.957 7.082,14.299 6.932,13.525 C6.883,13.265 6.85799814,12.994 6.85799814,12.709 C6.857,11.605 7.259,10.691 8.064,9.973 C8.868,9.253 9.891,8.892 11.134,8.89299793 C12.409,8.89299793 13.612,9.37 14.674,10.325 C14.939,10.562 15.195,10.831 15.442,11.128 L16.807,12.733 C17.043,13.057 17.297,13.337 17.559,13.573 C18.26,14.202 19.021,14.516 19.663,14.516 C20.21,14.516 20.667,14.35 21.034,14.014 C21.354,13.709 21.535,13.342 21.576,12.92 L21.584,12.734 C21.584,12.55 21.559,12.377 21.505,12.213 C21.418,11.942 21.258,11.697 21.026,11.479 C20.663,11.133 20.206,10.961 19.651,10.961 C18.97,10.961 18.297,11.191 17.558,11.906 L16.349,10.484 L16.2,10.319 C17.257,9.283 18.312,8.894 19.733,8.894 C20.993,8.894 22.012,9.251 22.792,9.966 L22.81,9.98 C23.603,10.693 24,11.615 24,12.744 C24,13.025 23.975,13.291 23.926,13.547 C23.777,14.311 23.404,14.963 22.806,15.502 C22.22,16.043 21.504,16.381 20.66,16.516 C20.379,16.561 20.083,16.582 19.772,16.582 C18.467,16.582 17.261,16.115 16.224,15.184 C15.944,14.932 15.675,14.647 15.421,14.327 L14.055,12.733 C13.825,12.413 13.575,12.137 13.315,11.903 C12.616,11.274 11.845,10.96 11.184,10.96 C10.979,10.96 10.787,10.985 10.607,11.032 C10.31,11.112 10.049,11.259 9.824,11.473 C9.549,11.735 9.376,12.037 9.308,12.377 C9.286,12.49 9.273,12.609 9.274,12.731 C9.274,13.217 9.449,13.631 9.798,13.975 L9.825,14 C10.2,14.344 10.661,14.514 11.208,14.514 C11.896,14.514 12.572,14.284 13.309,13.563 L14.512,14.965 L14.645,15.127 C13.546,16.174 12.502,16.57 11.136,16.57 C9.877,16.57 8.85,16.213 8.054,15.5 Z"></path>
        </g>
        <path fill="#FFFFFF" d="M72.24,25 L72.24,23.816 L66.576,23.816 L66.576,20.136 L72.128,20.136 L72.128,18.952 L66.576,18.952 L66.576,15.512 L72.24,15.512 L72.24,14.328 L65.248,14.328 L65.248,25 L72.24,25 Z M77.296,25.192 C78.3733333,25.192 79.2426667,24.744 79.904,23.848 L79.904,23.848 L79.904,25 L81.104,25 L81.104,14.328 L79.904,14.328 L79.904,18.44 C79.232,17.5333333 78.3626667,17.08 77.296,17.08 C76.272,17.08 75.4426667,17.4506667 74.808,18.192 C74.1733333,18.9333333 73.856,19.9173333 73.856,21.144 C73.856,22.3813333 74.1733333,23.3653333 74.808,24.096 C75.4426667,24.8266667 76.272,25.192 77.296,25.192 Z M77.584,24.12 C76.8266667,24.12 76.224,23.8426667 75.776,23.288 C75.328,22.7333333 75.104,22.0186667 75.104,21.144 C75.104,20.2693333 75.328,19.552 75.776,18.992 C76.224,18.432 76.8266667,18.152 77.584,18.152 C78.0426667,18.152 78.488,18.272 78.92,18.512 C79.352,18.752 79.68,19.048 79.904,19.4 L79.904,19.4 L79.904,22.904 C79.68,23.2453333 79.3546667,23.5333333 78.928,23.768 C78.5013333,24.0026667 78.0533333,24.12 77.584,24.12 Z M84.096,16.168 C84.32,16.168 84.512,16.0906667 84.672,15.936 C84.832,15.7813333 84.912,15.592 84.912,15.368 C84.912,15.144 84.832,14.952 84.672,14.792 C84.512,14.632 84.32,14.552 84.096,14.552 C83.8826667,14.552 83.696,14.632 83.536,14.792 C83.376,14.952 83.296,15.144 83.296,15.368 C83.296,15.592 83.376,15.7813333 83.536,15.936 C83.696,16.0906667 83.8826667,16.168 84.096,16.168 Z M84.704,25 L84.704,17.272 L83.504,17.272 L83.504,25 L84.704,25 Z M89.056,25.192 C89.664,25.192 90.144,25.0266667 90.496,24.696 L90.496,24.696 L90.144,23.8 C89.952,24.0133333 89.68,24.12 89.328,24.12 C89.072,24.12 88.8773333,24.0293333 88.744,23.848 C88.6106667,23.6666667 88.544,23.4266667 88.544,23.128 L88.544,23.128 L88.544,18.328 L90.112,18.328 L90.112,17.272 L88.544,17.272 L88.544,15.16 L87.344,15.16 L87.344,17.272 L86.064,17.272 L86.064,18.328 L87.344,18.328 L87.344,23.384 C87.344,23.9706667 87.488,24.4186667 87.776,24.728 C88.064,25.0373333 88.4906667,25.192 89.056,25.192 Z M99.312,25.192 C100.464,25.192 101.386667,24.8026667 102.08,24.024 C102.784,23.2453333 103.136,22.28 103.136,21.128 C103.136,19.976 102.786667,19.0133333 102.088,18.24 C101.389333,17.4666667 100.464,17.08 99.312,17.08 C98.16,17.08 97.2346667,17.4666667 96.536,18.24 C95.8373333,19.0133333 95.488,19.976 95.488,21.128 C95.488,22.28 95.8373333,23.2453333 96.536,24.024 C97.2346667,24.8026667 98.16,25.192 99.312,25.192 Z M99.312,24.12 C98.5226667,24.12 97.8933333,23.832 97.424,23.256 C96.9653333,22.6693333 96.736,21.96 96.736,21.128 C96.736,20.3066667 96.968,19.6053333 97.432,19.024 C97.896,18.4426667 98.5226667,18.152 99.312,18.152 C100.101333,18.152 100.725333,18.44 101.184,19.016 C101.642667,19.592 101.872,20.296 101.872,21.128 C101.872,21.96 101.642667,22.6666667 101.184,23.248 C100.725333,23.8293333 100.101333,24.12 99.312,24.12 Z M106.288,25 L106.288,19.352 C106.522667,19.0213333 106.850667,18.7386667 107.272,18.504 C107.693333,18.2693333 108.128,18.152 108.576,18.152 C109.130667,18.152 109.557333,18.288 109.856,18.56 C110.154667,18.832 110.304,19.2933333 110.304,19.944 L110.304,19.944 L110.304,25 L111.504,25 L111.504,19.576 C111.504,17.912 110.682667,17.08 109.04,17.08 C108.506667,17.08 107.989333,17.2106667 107.488,17.472 C106.986667,17.7333333 106.586667,18.04 106.288,18.392 L106.288,18.392 L106.288,17.272 L105.088,17.272 L105.088,25 L106.288,25 Z M119.792,25.192 C120.794667,25.192 121.610667,24.9013333 122.24,24.32 C122.869333,23.7386667 123.184,22.8933333 123.184,21.784 L123.184,21.784 L123.184,14.328 L121.856,14.328 L121.856,21.768 C121.856,22.44 121.661333,22.9813333 121.272,23.392 C120.882667,23.8026667 120.362667,24.008 119.712,24.008 C118.954667,24.008 118.282667,23.656 117.696,22.952 L117.696,22.952 L117.008,23.96 C117.712,24.7813333 118.64,25.192 119.792,25.192 Z M129.136,25.192 C130.469333,25.192 131.458667,24.888 132.104,24.28 C132.749333,23.672 133.072,22.9306667 133.072,22.056 C133.072,21.4373333 132.914667,20.9093333 132.6,20.472 C132.285333,20.0346667 131.896,19.7173333 131.432,19.52 C130.968,19.3226667 130.461333,19.136 129.912,18.96 C129.362667,18.784 128.856,18.6373333 128.392,18.52 C127.928,18.4026667 127.538667,18.2213333 127.224,17.976 C126.909333,17.7306667 126.752,17.4213333 126.752,17.048 C126.752,16.5466667 126.957333,16.1386667 127.368,15.824 C127.778667,15.5093333 128.304,15.352 128.944,15.352 C130.224,15.352 131.253333,15.7786667 132.032,16.632 L132.032,16.632 L132.832,15.656 C131.893333,14.664 130.629333,14.168 129.04,14.168 C127.984,14.168 127.109333,14.4426667 126.416,14.992 C125.722667,15.5413333 125.376,16.2533333 125.376,17.128 C125.376,17.64 125.493333,18.0826667 125.728,18.456 C125.962667,18.8293333 126.264,19.1173333 126.632,19.32 C127,19.5226667 127.408,19.696 127.856,19.84 C128.304,19.984 128.754667,20.1146667 129.208,20.232 C129.661333,20.3493333 130.072,20.48 130.44,20.624 C130.808,20.768 131.109333,20.968 131.344,21.224 C131.578667,21.48 131.696,21.7946667 131.696,22.168 C131.696,22.6586667 131.493333,23.088 131.088,23.456 C130.682667,23.824 130.048,24.008 129.184,24.008 C127.850667,24.008 126.730667,23.5013333 125.824,22.488 L125.824,22.488 L125.04,23.496 C126.042667,24.6266667 127.408,25.192 129.136,25.192 Z M136.384,25 L136.384,20.136 L141.936,20.136 L141.936,18.952 L136.384,18.952 L136.384,15.512 L142.048,15.512 L142.048,14.328 L135.056,14.328 L135.056,25 L136.384,25 Z M144.4,16.168 C144.624,16.168 144.816,16.0906667 144.976,15.936 C145.136,15.7813333 145.216,15.592 145.216,15.368 C145.216,15.144 145.136,14.952 144.976,14.792 C144.816,14.632 144.624,14.552 144.4,14.552 C144.186667,14.552 144,14.632 143.84,14.792 C143.68,14.952 143.6,15.144 143.6,15.368 C143.6,15.592 143.68,15.7813333 143.84,15.936 C144,16.0906667 144.186667,16.168 144.4,16.168 Z M145.008,25 L145.008,17.272 L143.808,17.272 L143.808,25 L145.008,25 Z M150.4,25.192 C151.477333,25.192 152.346667,24.744 153.008,23.848 L153.008,23.848 L153.008,25 L154.208,25 L154.208,14.328 L153.008,14.328 L153.008,18.44 C152.336,17.5333333 151.466667,17.08 150.4,17.08 C149.376,17.08 148.546667,17.4506667 147.912,18.192 C147.277333,18.9333333 146.96,19.9173333 146.96,21.144 C146.96,22.3813333 147.277333,23.3653333 147.912,24.096 C148.546667,24.8266667 149.376,25.192 150.4,25.192 Z M150.688,24.12 C149.930667,24.12 149.328,23.8426667 148.88,23.288 C148.432,22.7333333 148.208,22.0186667 148.208,21.144 C148.208,20.2693333 148.432,19.552 148.88,18.992 C149.328,18.432 149.930667,18.152 150.688,18.152 C151.146667,18.152 151.592,18.272 152.024,18.512 C152.456,18.752 152.784,19.048 153.008,19.4 L153.008,19.4 L153.008,22.904 C152.784,23.2453333 152.458667,23.5333333 152.032,23.768 C151.605333,24.0026667 151.157333,24.12 150.688,24.12 Z M159.6,25.192 C160.677333,25.192 161.546667,24.744 162.208,23.848 L162.208,23.848 L162.208,25 L163.408,25 L163.408,14.328 L162.208,14.328 L162.208,18.44 C161.536,17.5333333 160.666667,17.08 159.6,17.08 C158.576,17.08 157.746667,17.4506667 157.112,18.192 C156.477333,18.9333333 156.16,19.9173333 156.16,21.144 C156.16,22.3813333 156.477333,23.3653333 157.112,24.096 C157.746667,24.8266667 158.576,25.192 159.6,25.192 Z M159.888,24.12 C159.130667,24.12 158.528,23.8426667 158.08,23.288 C157.632,22.7333333 157.408,22.0186667 157.408,21.144 C157.408,20.2693333 157.632,19.552 158.08,18.992 C158.528,18.432 159.130667,18.152 159.888,18.152 C160.346667,18.152 160.792,18.272 161.224,18.512 C161.656,18.752 161.984,19.048 162.208,19.4 L162.208,19.4 L162.208,22.904 C161.984,23.2453333 161.658667,23.5333333 161.232,23.768 C160.805333,24.0026667 160.357333,24.12 159.888,24.12 Z M167.008,25 L167.008,14.328 L165.808,14.328 L165.808,25 L167.008,25 Z M172.896,25.192 C174.154667,25.192 175.178667,24.7973333 175.968,24.008 L175.968,24.008 L175.392,23.224 C174.762667,23.8746667 173.968,24.2 173.008,24.2 C172.208,24.2 171.557333,23.944 171.056,23.432 C170.554667,22.92 170.277333,22.2853333 170.224,21.528 L170.224,21.528 L176.48,21.528 L176.48,21.224 C176.48,20.0293333 176.146667,19.04 175.48,18.256 C174.813333,17.472 173.909333,17.08 172.768,17.08 C171.68,17.08 170.773333,17.472 170.048,18.256 C169.322667,19.04 168.96,19.9973333 168.96,21.128 C168.96,22.3333333 169.328,23.312 170.064,24.064 C170.8,24.816 171.744,25.192 172.896,25.192 Z M175.296,20.648 L170.224,20.648 C170.256,19.976 170.493333,19.3786667 170.936,18.856 C171.378667,18.3333333 171.984,18.072 172.752,18.072 C173.562667,18.072 174.186667,18.336 174.624,18.864 C175.061333,19.392 175.285333,19.9866667 175.296,20.648 L175.296,20.648 Z"></path>
    </g>
</svg>
